<mxfile host="app.diagrams.net" agent="Mozilla/5.0 (Windows NT 10.0; Win64; x64) AppleWebKit/537.36 (KHTML, like Gecko) Chrome/134.0.0.0 Safari/537.36" version="26.1.1">
  <diagram name="Strona-1" id="F6D2_FrjO-f445U07PHB">
    <mxGraphModel dx="1050" dy="563" grid="1" gridSize="10" guides="1" tooltips="1" connect="1" arrows="1" fold="1" page="1" pageScale="1" pageWidth="827" pageHeight="1169" math="0" shadow="0">
      <root>
        <mxCell id="0" />
        <mxCell id="1" parent="0" />
        <mxCell id="zxFe-MhAw5ysOGN5qhXj-8" value="" style="edgeStyle=orthogonalEdgeStyle;rounded=0;orthogonalLoop=1;jettySize=auto;html=1;" edge="1" parent="1" source="zxFe-MhAw5ysOGN5qhXj-1" target="zxFe-MhAw5ysOGN5qhXj-2">
          <mxGeometry relative="1" as="geometry" />
        </mxCell>
        <mxCell id="zxFe-MhAw5ysOGN5qhXj-1" value="start" style="ellipse;whiteSpace=wrap;html=1;" vertex="1" parent="1">
          <mxGeometry x="330" width="90" height="40" as="geometry" />
        </mxCell>
        <mxCell id="zxFe-MhAw5ysOGN5qhXj-9" value="NIE" style="edgeStyle=orthogonalEdgeStyle;rounded=0;orthogonalLoop=1;jettySize=auto;html=1;" edge="1" parent="1" source="zxFe-MhAw5ysOGN5qhXj-2" target="zxFe-MhAw5ysOGN5qhXj-5">
          <mxGeometry x="-0.0044" relative="1" as="geometry">
            <mxPoint as="offset" />
          </mxGeometry>
        </mxCell>
        <mxCell id="zxFe-MhAw5ysOGN5qhXj-11" value="" style="edgeStyle=orthogonalEdgeStyle;rounded=0;orthogonalLoop=1;jettySize=auto;html=1;" edge="1" parent="1" source="zxFe-MhAw5ysOGN5qhXj-2" target="zxFe-MhAw5ysOGN5qhXj-3">
          <mxGeometry relative="1" as="geometry" />
        </mxCell>
        <mxCell id="zxFe-MhAw5ysOGN5qhXj-14" value="TAK" style="edgeStyle=orthogonalEdgeStyle;rounded=0;orthogonalLoop=1;jettySize=auto;html=1;entryX=0.5;entryY=0;entryDx=0;entryDy=0;" edge="1" parent="1" source="zxFe-MhAw5ysOGN5qhXj-2" target="zxFe-MhAw5ysOGN5qhXj-12">
          <mxGeometry relative="1" as="geometry">
            <mxPoint x="160" y="105" as="targetPoint" />
          </mxGeometry>
        </mxCell>
        <mxCell id="zxFe-MhAw5ysOGN5qhXj-2" value="a, b, c" style="shape=parallelogram;perimeter=parallelogramPerimeter;whiteSpace=wrap;html=1;fixedSize=1;" vertex="1" parent="1">
          <mxGeometry x="322.5" y="80" width="105" height="50" as="geometry" />
        </mxCell>
        <mxCell id="zxFe-MhAw5ysOGN5qhXj-3" value="a != 0" style="rhombus;whiteSpace=wrap;html=1;" vertex="1" parent="1">
          <mxGeometry x="338" y="160" width="76" height="70" as="geometry" />
        </mxCell>
        <mxCell id="zxFe-MhAw5ysOGN5qhXj-10" value="" style="edgeStyle=orthogonalEdgeStyle;rounded=0;orthogonalLoop=1;jettySize=auto;html=1;" edge="1" parent="1" source="zxFe-MhAw5ysOGN5qhXj-5" target="zxFe-MhAw5ysOGN5qhXj-6">
          <mxGeometry relative="1" as="geometry" />
        </mxCell>
        <mxCell id="zxFe-MhAw5ysOGN5qhXj-5" value="nie jest to rown. kwadratowe" style="shape=parallelogram;perimeter=parallelogramPerimeter;whiteSpace=wrap;html=1;fixedSize=1;" vertex="1" parent="1">
          <mxGeometry x="520" y="80" width="130" height="50" as="geometry" />
        </mxCell>
        <mxCell id="zxFe-MhAw5ysOGN5qhXj-6" value="end" style="ellipse;whiteSpace=wrap;html=1;" vertex="1" parent="1">
          <mxGeometry x="540" y="160" width="90" height="40" as="geometry" />
        </mxCell>
        <mxCell id="zxFe-MhAw5ysOGN5qhXj-12" value="delta = b * b - 4 * a * c" style="rounded=0;whiteSpace=wrap;html=1;" vertex="1" parent="1">
          <mxGeometry x="100" y="160" width="120" height="60" as="geometry" />
        </mxCell>
      </root>
    </mxGraphModel>
  </diagram>
</mxfile>
